<svg width="200" height="200" viewBox="0 0 200 200" fill="none" xmlns="http://www.w3.org/2000/svg">
<rect width="200" height="200" fill="#F0A2A2"/>
<path d="M62 33C69.9565 33 77.5871 36.1607 83.2132 41.7868C88.8393 47.4129 92 55.0435 92 63C92 76.95 82.475 88.725 69.5 92.025V108.975C72.275 109.65 74.9 110.775 77.3 112.2L111.2 78.3C108.5 73.8 107 68.625 107 63C107 55.0435 110.161 47.4129 115.787 41.7868C121.413 36.1607 129.044 33 137 33C144.956 33 152.587 36.1607 158.213 41.7868C163.839 47.4129 167 55.0435 167 63C167 70.9565 163.839 78.5871 158.213 84.2132C152.587 89.8393 144.956 93 137 93C131.45 93 126.275 91.5 122 88.875L87.875 123C90.5 127.275 92 132.45 92 138C92 145.956 88.8393 153.587 83.2132 159.213C77.5871 164.839 69.9565 168 62 168C54.0435 168 46.4129 164.839 40.7868 159.213C35.1607 153.587 32 145.956 32 138C32 124.05 41.525 112.275 54.5 108.975V92.025C41.525 88.725 32 76.95 32 63C32 55.0435 35.1607 47.4129 40.7868 41.7868C46.4129 36.1607 54.0435 33 62 33ZM137 108C144.956 108 152.587 111.161 158.213 116.787C163.839 122.413 167 130.044 167 138C167 145.956 163.839 153.587 158.213 159.213C152.587 164.839 144.956 168 137 168C129.044 168 121.413 164.839 115.787 159.213C110.161 153.587 107 145.956 107 138C107 130.044 110.161 122.413 115.787 116.787C121.413 111.161 129.044 108 137 108ZM137 123C133.022 123 129.206 124.58 126.393 127.393C123.58 130.206 122 134.022 122 138C122 141.978 123.58 145.794 126.393 148.607C129.206 151.42 133.022 153 137 153C140.978 153 144.794 151.42 147.607 148.607C150.42 145.794 152 141.978 152 138C152 134.022 150.42 130.206 147.607 127.393C144.794 124.58 140.978 123 137 123Z" fill="#9F4C4C"/>
</svg>
