<svg width="200" height="200" viewBox="0 0 200 200" fill="none" xmlns="http://www.w3.org/2000/svg">
<g clip-path="url(#clip0_5011_10246)">
<path d="M0 0C66 0 132 0 200 0C200 66 200 132 200 200C134 200 68 200 0 200C0 134 0 68 0 0Z" fill="#FEFEFE"/>
<path d="M54.7734 38.3438C55.8242 39.211 56.8203 40.1328 57.8164 41.0625C58.2578 41.4727 58.707 41.8789 59.1679 42.2734C59.9023 42.9102 60.625 43.5664 61.3398 44.2266C61.4531 44.3281 61.5664 44.4297 61.6835 44.5391C62.2656 45.0781 62.8125 45.6289 63.3281 46.2344C64.039 47.0547 64.789 47.8164 65.5585 48.5781C65.6953 48.7149 65.832 48.8516 65.9765 48.9922C66.4101 49.4258 66.8476 49.8594 67.2851 50.293C67.8632 50.8633 68.4375 51.4375 69.0117 52.0078C69.1406 52.1367 69.2734 52.2656 69.4062 52.3945C69.5312 52.5195 69.6562 52.6445 69.7812 52.7695C69.8906 52.8789 69.996 52.9844 70.1093 53.0938C70.4648 53.4727 70.8046 53.8555 71.1445 54.25C71.8437 55.0547 72.5781 55.8125 73.332 56.5664C73.4687 56.707 73.6093 56.8438 73.75 56.9883C74.207 57.4453 74.6601 57.9024 75.1171 58.3594C75.3515 58.5977 75.3515 58.5977 75.5937 58.836C76.4218 59.6719 77.2539 60.5039 78.0859 61.3359C78.9375 62.1914 79.789 63.0469 80.6406 63.9024C81.3007 64.5664 81.9609 65.2266 82.625 65.8906C82.9375 66.2031 83.25 66.5195 83.5625 66.8359C87.5312 70.8359 92.4257 75.3359 98.414 75.4649C98.746 75.4453 99.082 75.4219 99.414 75.3906C99.5625 75.3789 99.7148 75.3672 99.871 75.3555C105.152 74.6367 109.293 69.2539 112.812 65.7188C113.125 65.4063 113.434 65.0938 113.746 64.7852C114.406 64.1211 115.07 63.457 115.73 62.793C116.777 61.7422 117.828 60.6914 118.875 59.6406C120.348 58.168 121.82 56.6914 123.289 55.2188C123.43 55.0781 123.43 55.0781 123.57 54.9375C124.891 53.6133 126.211 52.2891 127.531 50.9649C127.625 50.8711 127.719 50.7774 127.812 50.6836C127.906 50.5899 128 50.4961 128.098 50.3985C129.652 48.8399 131.207 47.2813 132.766 45.7188C133.809 44.6797 134.848 43.6328 135.887 42.5899C136.535 41.9414 137.184 41.2891 137.832 40.6406C138.133 40.3438 138.43 40.043 138.73 39.7422C140.273 38.1875 141.816 36.6914 143.555 35.3516C143.687 35.2461 143.82 35.1406 143.961 35.0313C149.965 30.2891 157.07 28.5938 164.637 29.418C168.652 30.086 172.383 31.586 175.391 34.375C175.547 34.5195 175.703 34.6602 175.863 34.8086C176.906 35.8047 177.746 36.8672 178.516 38.0859C178.641 38.2852 178.769 38.4883 178.898 38.6953C183.719 46.7149 184.41 57.7891 182.293 66.7617C181.992 67.9609 181.641 69.1406 181.25 70.3125C181.195 70.4727 181.144 70.6367 181.09 70.8008C179.609 75.2188 177.289 78.75 174.219 82.2266C174.105 82.3594 173.992 82.4883 173.875 82.625C172.398 84.3008 170.801 85.8555 169.215 87.4258C168.641 87.9961 168.07 88.5625 167.496 89.1328C167.367 89.2578 167.242 89.3828 167.109 89.5156C166.508 90.1133 165.926 90.7188 165.375 91.3633C164.555 92.3125 163.664 93.1875 162.773 94.0664C162.461 94.3711 162.152 94.6797 161.84 94.9883C160.961 95.8633 160.078 96.7344 159.195 97.6055C158.652 98.1445 158.109 98.6797 157.566 99.2188C157.363 99.4219 157.16 99.625 156.953 99.8281C155.727 101.031 154.637 102.254 153.711 103.711C153.625 103.848 153.539 103.98 153.449 104.121C152.773 105.219 152.703 106.367 152.93 107.617C153.961 109.574 155.781 111.121 157.336 112.652C157.609 112.926 157.883 113.195 158.156 113.469C158.871 114.18 159.586 114.887 160.305 115.594C161.457 116.734 162.605 117.871 163.754 119.016C164.156 119.41 164.559 119.809 164.961 120.207C165.203 120.445 165.449 120.688 165.691 120.93C165.805 121.039 165.918 121.152 166.035 121.266C166.297 121.527 166.547 121.797 166.797 122.07C166.797 122.199 166.797 122.328 166.797 122.461C166.926 122.461 167.055 122.461 167.187 122.461C167.457 122.734 167.457 122.734 167.773 123.121C168.629 124.125 169.559 125.039 170.5 125.961C170.687 126.145 170.871 126.328 171.059 126.512C171.84 127.285 172.621 128.055 173.406 128.824C178.586 133.906 178.586 133.906 179.945 136.988C180.008 137.125 180.07 137.262 180.133 137.402C180.762 138.824 181.262 140.289 181.641 141.797C181.676 141.938 181.715 142.078 181.75 142.223C182.09 143.691 182.105 145.148 182.105 146.656C182.105 146.855 182.105 146.855 182.105 147.059C182.094 149.352 181.887 151.504 181.25 153.711C181.203 153.879 181.152 154.047 181.105 154.223C179.289 160.402 175.867 165.949 170.117 169.141C163.578 172.445 155.949 172.02 149.121 169.891C147.871 169.473 146.687 168.945 145.508 168.359C145.309 168.262 145.309 168.262 145.105 168.164C141.777 166.543 138.871 164.398 136.133 161.914C135.957 161.758 135.785 161.598 135.605 161.438C133.902 159.887 132.266 158.273 130.641 156.641C130.199 156.199 129.754 155.754 129.309 155.313C129.023 155.027 128.738 154.738 128.449 154.453C128.32 154.324 128.191 154.191 128.055 154.059C127.305 153.305 126.594 152.527 125.894 151.723C125.496 151.266 125.078 150.84 124.644 150.414C124.48 150.25 124.316 150.086 124.144 149.918C123.977 149.75 123.805 149.586 123.633 149.414C123.293 149.082 122.957 148.746 122.621 148.414C122.473 148.266 122.324 148.121 122.172 147.973C121.793 147.578 121.434 147.18 121.078 146.762C120.219 145.773 119.293 144.855 118.363 143.938C118.039 143.613 117.719 143.293 117.394 142.969C116.707 142.285 116.019 141.602 115.332 140.918C114.535 140.125 113.738 139.332 112.941 138.535C112.625 138.223 112.309 137.906 111.988 137.594C111.055 136.664 110.144 135.727 109.285 134.723C108.793 134.156 108.269 133.621 107.742 133.09C107.629 132.973 107.516 132.859 107.398 132.738C107.16 132.5 106.922 132.258 106.684 132.016C106.445 131.777 106.207 131.531 105.969 131.289C102.91 128.156 99.7773 125.754 95.2265 125.695C89.6601 125.73 85.9296 129.883 82.25 133.547C82.0937 133.699 81.9414 133.855 81.7812 134.012C81.6289 134.164 81.4804 134.316 81.3242 134.469C81.1914 134.602 81.0585 134.734 80.9257 134.871C80.5664 135.25 80.2304 135.633 79.8906 136.027C78.9492 137.113 77.9218 138.117 76.9023 139.129C76.5312 139.496 76.1601 139.867 75.7929 140.234C74.875 141.148 73.957 142.063 73.039 142.977C72.2617 143.75 71.4843 144.523 70.707 145.297C70.3437 145.66 69.9843 146.02 69.621 146.379C68.6406 147.355 67.6796 148.332 66.7812 149.387C65.8398 150.438 64.8242 151.418 63.8281 152.418C63.5781 152.668 63.3242 152.922 63.0742 153.172C62.5468 153.699 62.0234 154.223 61.496 154.75C60.8281 155.418 60.164 156.086 59.496 156.758C58.9765 157.277 58.457 157.797 57.9375 158.316C57.6953 158.563 57.4492 158.809 57.2031 159.055C55.7734 160.492 54.332 161.836 52.7343 163.086C52.5156 163.262 52.2968 163.438 52.0781 163.617C45.582 168.715 36.9492 172.883 28.5156 172.266C25.8515 171.91 23.3906 170.883 21.6796 168.75C19.1601 165.273 18.4843 161.652 18.75 157.422C19.0546 155.52 20.2265 154.242 21.6484 153.008C23.1914 151.902 25.3007 151.656 27.1328 151.289C33.5156 150.012 38.2031 146.863 42.9453 142.543C43.0429 142.449 43.1445 142.359 43.246 142.27C43.7656 141.789 44.2382 141.297 44.6953 140.758C45.6796 139.625 46.7539 138.578 47.8164 137.52C48.207 137.133 48.5976 136.746 48.9843 136.355C49.9492 135.395 50.9179 134.43 51.8867 133.469C52.7031 132.652 53.5234 131.836 54.3398 131.023C54.7226 130.641 55.1054 130.262 55.4843 129.883C56.5156 128.855 57.5312 127.836 58.4726 126.727C59.1132 126 59.8085 125.328 60.5 124.645C60.7382 124.406 60.7382 124.406 60.9804 124.164C61.6562 123.492 62.3359 122.82 63.0117 122.148C63.5078 121.656 64.0039 121.16 64.5 120.668C64.6523 120.516 64.8046 120.367 64.9609 120.215C65.875 119.305 66.7382 118.363 67.5781 117.383C72.8906 111.484 79.4687 105.547 87.5 103.906C87.6601 103.871 87.8164 103.836 87.9804 103.801C92.4921 102.82 96.8789 102.828 101.367 103.906C101.512 103.941 101.66 103.977 101.809 104.012C106.922 105.266 111.953 107.805 116.016 111.133C116.125 111.219 116.234 111.309 116.348 111.398C118.93 113.465 121.375 115.844 123.527 118.355C124.394 119.363 125.348 120.285 126.293 121.215C127.344 122.25 128.367 123.273 129.297 124.414C129.519 124.621 129.746 124.82 129.98 125.012C131.57 126.371 133.051 127.879 134.398 129.477C134.891 130.023 135.414 130.539 135.937 131.055C136.574 131.684 137.199 132.313 137.781 132.996C138.492 133.836 139.277 134.598 140.062 135.367C140.617 135.914 141.144 136.469 141.648 137.059C142.348 137.859 143.082 138.625 143.832 139.383C143.965 139.52 144.098 139.656 144.238 139.797C144.523 140.082 144.805 140.371 145.09 140.656C145.375 140.941 145.66 141.23 145.941 141.52C148.16 143.785 150.402 145.793 153.246 147.242C153.387 147.313 153.527 147.383 153.672 147.457C155.789 148.523 157.762 149.137 160.156 148.828C160.727 148.637 160.727 148.637 161.133 148.242C161.352 147.59 161.391 147.234 161.144 146.59C160.133 145.047 158.918 143.75 157.641 142.43C157.203 141.969 156.781 141.496 156.359 141.023C154.832 139.344 153.207 137.766 151.594 136.168C151.008 135.586 150.422 135.004 149.836 134.422C149.637 134.223 149.434 134.02 149.23 133.82C149.129 133.719 149.027 133.617 148.926 133.516C147.566 132.164 146.207 130.813 144.844 129.465C143.922 128.547 142.996 127.633 142.078 126.711C141.594 126.23 141.105 125.746 140.621 125.266C138.019 122.703 135.48 120.105 133.742 116.859C133.664 116.715 133.586 116.57 133.504 116.426C130.844 111.371 129.168 105.035 130.859 99.4141C132.519 94.2344 136.086 89.6016 140.184 86.0859C141 85.375 141.773 84.625 142.543 83.8594C142.687 83.7149 142.832 83.5742 142.977 83.4258C143.449 82.9609 143.918 82.4922 144.391 82.0234C144.551 81.8633 144.715 81.7031 144.879 81.5352C145.738 80.6836 146.594 79.8281 147.453 78.9727C148.332 78.0977 149.211 77.2227 150.094 76.3477C150.777 75.6719 151.457 74.9922 152.137 74.3125C152.461 73.9883 152.785 73.668 153.109 73.3438C155.394 71.0859 157.469 68.8164 158.949 65.9297C159.019 65.793 159.09 65.6524 159.164 65.5078C161.059 61.7344 162.164 56.6992 160.91 52.5664C160.742 52.1016 160.742 52.1016 160.352 51.5625C159.543 51.3867 159.047 51.5899 158.375 52.0156C156.019 53.7266 154.008 55.9297 151.961 57.9844C151.652 58.293 151.348 58.6016 151.039 58.9063C150.383 59.5664 149.727 60.2227 149.074 60.8789C148.035 61.9219 146.996 62.9609 145.957 64.0039C144.5 65.4609 143.043 66.9219 141.586 68.3828C141.492 68.4766 141.398 68.5664 141.305 68.6641C139.996 69.9766 138.687 71.2852 137.379 72.5977C137.289 72.6914 137.195 72.7852 137.102 72.8789C137.008 72.9727 136.918 73.0625 136.82 73.1602C135.281 74.7031 133.742 76.2461 132.199 77.7891C131.168 78.8242 130.137 79.8555 129.105 80.8906C128.465 81.5352 127.82 82.1797 127.18 82.8242C126.883 83.1211 126.586 83.418 126.289 83.7149C124.75 85.2656 123.211 86.7422 121.484 88.0859C121.262 88.2734 121.039 88.457 120.82 88.6484C117.551 91.3789 113.828 93.9102 109.961 95.7031C109.844 95.7578 109.723 95.8164 109.602 95.875C103.223 98.8516 94.8203 98.6172 88.2812 96.2891C88.1289 96.2344 87.9726 96.1797 87.8164 96.125C81.8046 93.9375 76.6406 90.1406 71.875 85.9375C71.7304 85.8086 71.5859 85.6836 71.4375 85.5508C70.2304 84.4766 69.0742 83.3594 67.9335 82.2149C67.7656 82.0508 67.6015 81.8828 67.4296 81.7149C66.5781 80.8594 65.7578 79.9922 64.9726 79.0742C64.4375 78.4688 63.8593 77.9102 63.2812 77.3438C62.5781 76.6563 61.8906 75.9609 61.25 75.2149C60.5039 74.3516 59.6992 73.5547 58.8867 72.7539C58.082 71.9649 57.289 71.1797 56.5546 70.3242C55.7539 69.3945 54.8789 68.5391 54.0039 67.6758C52.2265 65.9258 52.2265 65.9258 51.4687 65.043C50.4921 63.9024 49.3984 62.8711 48.3242 61.8242C48.1601 61.6641 48 61.5039 47.8359 61.3438C47.6875 61.1992 47.539 61.0547 47.3906 60.9063C47.0703 60.5469 47.0703 60.5469 47.0703 60.1563C46.9414 60.1563 46.8125 60.1563 46.6796 60.1563C46.3906 59.8633 46.3906 59.8633 46.0585 59.461C42.6445 55.4649 37.9257 52.1406 32.8125 50.7813C32.6328 50.7305 32.4531 50.6797 32.2695 50.6289C30.4023 50.1445 28.5976 50.1055 26.6875 50.0938C24.3789 50.0781 22.414 49.9375 20.7031 48.2422C18.6484 45.7539 18.5078 42.2813 18.6953 39.2031C18.8281 37.9063 19.2265 36.7422 19.7265 35.5469C19.8007 35.3633 19.871 35.1797 19.9453 34.9922C21.0312 32.543 23.125 30.8203 25.5234 29.7344C35.8789 25.7539 46.914 32.0352 54.7734 38.3438Z" fill="black"/>
</g>
<defs>
<clipPath id="clip0_5011_10246">
<rect width="200" height="200" fill="white"/>
</clipPath>
</defs>
</svg>
